<?xml version="1.0" encoding="UTF-8"?>
<svg xmlns="http://www.w3.org/2000/svg" viewBox="0 0 1400 600"
     fill="none" stroke="#7c2f0d" stroke-width="1.6"
     stroke-linecap="round" stroke-linejoin="round">
  <!--
    Default hero illustration. Swap this for your own picture:
      • Drop any .jpg/.png/.svg here as `hero.jpg` / `hero.png`, or
      • Keep editing this SVG — it's just plain XML.
    See styles.css (.hero-bg::before) for how this is wired in.
  -->

  <!-- Sprig of rosemary (top-left) -->
  <g transform="translate(120,90) rotate(-18)">
    <path d="M0 0 C 20 40, 40 80, 60 120 S 110 210, 130 260" />
    <g stroke-width="1.2">
      <path d="M20 25 L -5 15" /><path d="M25 40 L 48 32" />
      <path d="M40 65 L 14 56" /><path d="M48 82 L 72 74" />
      <path d="M60 108 L 34 100" /><path d="M70 128 L 94 121" />
      <path d="M82 156 L 55 149" /><path d="M92 178 L 116 172" />
      <path d="M104 206 L 77 200" /><path d="M116 228 L 140 223" />
    </g>
  </g>

  <!-- Lemon halved (top-right) -->
  <g transform="translate(1180,110)">
    <circle cx="60" cy="60" r="58" />
    <circle cx="60" cy="60" r="50" stroke-dasharray="2 4" />
    <g stroke-width="1.1">
      <path d="M60 14 L 60 106" /><path d="M14 60 L 106 60" />
      <path d="M27 27 L 93 93" /><path d="M93 27 L 27 93" />
    </g>
    <ellipse cx="60" cy="60" rx="14" ry="6" />
  </g>

  <!-- Bowl with steam (left-middle) -->
  <g transform="translate(90,320)">
    <path d="M0 40 Q 0 120, 95 120 Q 190 120, 190 40 Z" />
    <ellipse cx="95" cy="40" rx="95" ry="16" />
    <g stroke-width="1.3">
      <path d="M60 -10 C 50 -25, 70 -35, 58 -55" />
      <path d="M95 -14 C 85 -30, 108 -42, 93 -64" />
      <path d="M132 -8 C 122 -24, 144 -36, 130 -58" />
    </g>
  </g>

  <!-- Whisk (bottom-right) -->
  <g transform="translate(1140,370) rotate(14)">
    <rect x="68" y="-14" width="14" height="70" rx="4" />
    <path d="M75 56 C 40 90, 30 140, 52 180" />
    <path d="M75 56 C 60 95, 55 140, 70 180" />
    <path d="M75 56 C 85 95, 90 140, 80 180" />
    <path d="M75 56 C 110 90, 120 140, 98 180" />
    <ellipse cx="75" cy="180" rx="28" ry="8" />
  </g>

  <!-- Tomato (center-right) -->
  <g transform="translate(820,190)">
    <path d="M-50 10 Q -50 80, 0 80 Q 50 80, 50 10 Q 50 -30, 0 -28 Q -50 -30, -50 10 Z" />
    <g stroke-width="1.2">
      <path d="M-8 -28 L -14 -44 L -4 -36 L 0 -50 L 4 -36 L 14 -44 L 8 -28" />
      <path d="M0 -28 L 0 -52" />
    </g>
    <path d="M-34 -8 Q -24 16, -10 22" stroke-width="0.9" />
  </g>

  <!-- Garlic head (center-left) -->
  <g transform="translate(470,340)">
    <path d="M0 0 Q -30 0, -38 30 Q -42 55, -20 70 Q 0 80, 20 70 Q 42 55, 38 30 Q 30 0, 0 0 Z" />
    <path d="M0 0 Q -6 -14, 0 -22 Q 6 -14, 0 0 Z" />
    <g stroke-width="1">
      <path d="M-20 8 Q -24 40, -14 66" />
      <path d="M20 8 Q 24 40, 14 66" />
      <path d="M0 6 L 0 74" />
    </g>
  </g>

  <!-- Mushroom (far bottom-left) -->
  <g transform="translate(330,470)">
    <path d="M-40 0 Q -40 -48, 0 -48 Q 40 -48, 40 0 Z" />
    <path d="M-40 0 Q -20 12, 0 12 Q 20 12, 40 0" />
    <rect x="-14" y="12" width="28" height="34" rx="8" />
    <g stroke-width="0.9">
      <circle cx="-18" cy="-26" r="3.5" />
      <circle cx="6" cy="-34" r="2.5" />
      <circle cx="22" cy="-18" r="3" />
    </g>
  </g>

  <!-- Wooden spoon (diagonal middle) -->
  <g transform="translate(640,90) rotate(22)">
    <ellipse cx="0" cy="0" rx="36" ry="24" />
    <rect x="-4" y="18" width="8" height="170" rx="3" />
  </g>

  <!-- Chef's knife silhouette (bottom middle) -->
  <g transform="translate(740,470) rotate(-12)">
    <path d="M0 0 L 220 0 L 260 -18 L 260 -8 L 0 12 Z" />
    <rect x="-70" y="-6" width="72" height="20" rx="4" />
    <circle cx="-52" cy="4" r="1.5" />
    <circle cx="-28" cy="4" r="1.5" />
  </g>

  <!-- Chili pepper (upper middle) -->
  <g transform="translate(320,180) rotate(40)">
    <path d="M0 0 Q -6 4, -8 14 Q -10 40, -4 80 Q 4 110, 14 118 Q 24 110, 22 90 Q 18 60, 14 38 Q 10 14, 4 2 Z" />
    <path d="M-2 -2 Q -10 -10, -18 -6 Q -14 -16, -4 -14 Q 2 -18, 6 -10 Q 2 -2, 0 0" />
  </g>

  <!-- Salt shaker suggestion dots (scattered speckle) -->
  <g fill="#7c2f0d" stroke="none" opacity="0.6">
    <circle cx="230" cy="250" r="1.5" /><circle cx="260" cy="270" r="1" />
    <circle cx="250" cy="290" r="1.3" /><circle cx="1000" cy="330" r="1.5" />
    <circle cx="1030" cy="350" r="1" /><circle cx="1060" cy="335" r="1.2" />
    <circle cx="580" cy="500" r="1.3" /><circle cx="600" cy="520" r="1" />
  </g>
</svg>
